<svg xmlns="http://www.w3.org/2000/svg" version="1.1" viewBox="0 0 52 52"><path d="M37.67,43.08c-0.11-0.01-0.22-0.02-0.34-0.03c-1.92-0.21-3.23-1.36-4.77-3.94c3.5-3.12,5.3-8.17,5.27-14.13c-0.08-5.09-1.48-9.71-4.03-13.04c-2.55-3.32-6.23-5.46-10.82-5.84C12.5,5.22,7.91,12.84,8,23.06c0.11,10.92,6.63,18.14,14.85,18.83c2.35,0.2,4.39-0.07,6.42-0.81c1.81,3.47,3.77,6.2,7.05,6.47c2.93,0.25,5.52-2.98,6.84-6.16C41.14,42.74,39.93,43.27,37.67,43.08z M22.96,38.98c-2.48-0.21-4.41-1.13-5.91-2.57c0.02-3.02,1.89-5.01,4.46-4.79c3.2,0.27,4.66,3.32,6.22,6.45C26.28,38.86,24.83,39.18,22.96,38.98z M30.34,35.5c-2.49-3.91-4.54-6.57-8.22-6.88c-3.39-0.28-5.65,1.6-6.7,5.8c-1.76-3.52-2.23-7.3-2.27-11.13c-0.08-7.48,1.88-15.06,9.77-14.4c7.63,0.64,9.48,8.39,9.54,15.77C32.5,28.59,32.06,32.4,30.34,35.5z M42.15,45.64c1.39-1.61,2.37-3.57,2.82-4.71l1.42-0.41C45.5,42.35,44.08,44.61,42.15,45.64z M34.43,39.13c1.41-1.33,5.8-6.32,4.93-16.25c-0.97-11.01-6.79-15.32-11.51-17c-0.72-0.23-1.44-0.43-2.16-0.58c3.44,0.07,8.09,1.16,11.56,5.74c6.29,8.3,4.78,21.93-1.41,26.92c0.37,0.8,1.77,3.18,3.51,3.95C37.05,42.18,35.48,41.02,34.43,39.13z M24.55,37.86c-2.49-0.18-4.32-0.64-5.87-2.04c0.11-1.89,1.1-2.98,2.48-3.44c-0.38,0.65-0.8,2.06-0.73,3.05C20.87,36.09,22.84,37.46,24.55,37.86z M30.7,33.06c-1.82-2.76-3.81-4.51-5.92-5.21c3.75-0.17,5.76,2.19,6.49,3.15C31.12,31.73,30.93,32.42,30.7,33.06z M15.89,31.37c-0.88-2.75-1.26-6.83-1.02-11.31c0.25-4.68,2.12-8.43,4.88-9.98c-1.3,1.65-2.31,4.02-2.77,6.62c-0.7,4.01-0.57,8.98,0.34,12.8C16.77,30.01,16.29,30.63,15.89,31.37z"></path></svg>